<svg xmlns="http://www.w3.org/2000/svg" xmlns:xlink="http://www.w3.org/1999/xlink" width="2400" zoomAndPan="magnify" viewBox="0 0 1800 1799.999925" height="2400" preserveAspectRatio="xMidYMid meet" version="1.0"><path fill="#000000" d="M 550.097656 621.515625 C 693.828125 477.78125 926.792969 477.78125 1070.296875 621.515625 C 1214.027344 765.25 1214.027344 998.210938 1070.296875 1141.714844 C 1063.394531 1148.84375 1056.035156 1155.515625 1048.675781 1161.722656 L 901.726562 1014.769531 C 909.773438 1009.25 917.363281 1003.042969 924.492188 995.914062 C 987.503906 932.898438 987.503906 830.5625 924.492188 767.550781 C 861.480469 704.304688 759.140625 704.304688 696.128906 767.550781 C 632.886719 830.5625 632.886719 932.898438 696.128906 995.914062 C 703.257812 1003.042969 710.847656 1009.25 718.894531 1014.769531 L 571.714844 1161.722656 C 564.355469 1155.515625 557.226562 1148.84375 550.097656 1141.714844 C 406.363281 998.210938 406.363281 765.25 550.097656 621.515625 Z M 1536.679688 1013.851562 C 1552.777344 925.3125 1552.546875 834.242188 1535.992188 745.472656 C 1509.542969 604.269531 1441.703125 469.042969 1332.234375 359.578125 C 1043.847656 71.421875 576.542969 71.421875 288.15625 359.578125 C 0 647.964844 0 1115.269531 288.15625 1403.65625 C 432.347656 1547.847656 621.386719 1619.828125 810.195312 1619.828125 C 810.65625 1619.828125 811.117188 1619.828125 811.804688 1619.828125 C 923.34375 1619.597656 1035.109375 1594.300781 1137.445312 1543.707031 L 979.6875 1385.945312 C 794.328125 1448.039062 581.601562 1405.265625 434.1875 1257.851562 C 226.523438 1049.957031 226.523438 713.273438 434.1875 505.609375 C 641.855469 297.945312 978.535156 297.945312 1186.429688 505.609375 C 1349.941406 669.121094 1384.667969 912.890625 1290.609375 1110.4375 C 1265.082031 1163.792969 1230.355469 1213.695312 1186.429688 1257.851562 C 1179.300781 1264.75 1172.171875 1271.421875 1164.8125 1278.089844 L 1311.078125 1424.121094 L 1506.785156 1619.828125 L 1800 1619.828125 L 1442.851562 1262.679688 C 1489.535156 1184.949219 1521.042969 1100.550781 1536.679688 1013.851562 Z M 1536.679688 1013.851562 " fill-opacity="1" fill-rule="evenodd"/></svg>