<svg xmlns="http://www.w3.org/2000/svg" xmlns:xlink="http://www.w3.org/1999/xlink" width="1080" zoomAndPan="magnify" viewBox="0 0 810 809.999993" height="1080" preserveAspectRatio="xMidYMid meet" version="1.0"><defs><clipPath id="8a63674eeb"><path d="M 405 0 C 181.324219 0 0 181.324219 0 405 C 0 628.675781 181.324219 810 405 810 C 628.675781 810 810 628.675781 810 405 C 810 181.324219 628.675781 0 405 0 Z M 405 0 " clip-rule="nonzero"/></clipPath><clipPath id="220e5284c7"><path d="M 109 109 L 802.5 109 L 802.5 702 L 109 702 Z M 109 109 " clip-rule="nonzero"/></clipPath></defs><g clip-path="url(#8a63674eeb)"><rect x="-81" width="972" fill="#6a43b8" y="-80.999999" height="971.999992" fill-opacity="1"/></g><g clip-path="url(#220e5284c7)"><path fill="#ffffff" d="M 301.472656 301.539062 C 359.078125 243.933594 452.445312 243.933594 509.960938 301.539062 C 567.566406 359.144531 567.566406 452.515625 509.960938 510.027344 C 507.195312 512.886719 504.246094 515.558594 501.296875 518.046875 L 442.398438 459.152344 C 445.625 456.9375 448.667969 454.449219 451.523438 451.59375 C 476.78125 426.339844 476.78125 385.320312 451.523438 360.066406 C 426.269531 334.71875 385.253906 334.71875 360 360.066406 C 334.652344 385.320312 334.652344 426.339844 360 451.59375 C 362.855469 454.449219 365.898438 456.9375 369.125 459.152344 L 310.136719 518.046875 C 307.1875 515.558594 304.328125 512.886719 301.472656 510.027344 C 243.863281 452.515625 243.863281 359.144531 301.472656 301.539062 Z M 696.882812 458.78125 C 703.335938 423.296875 703.242188 386.796875 696.605469 351.21875 C 686.007812 294.625 658.816406 240.429688 614.941406 196.558594 C 499.363281 81.066406 312.070312 81.066406 196.488281 196.558594 C 81 312.140625 81 499.429688 196.488281 615.011719 C 254.28125 672.800781 330.042969 701.652344 405.714844 701.652344 C 405.902344 701.652344 406.085938 701.652344 406.363281 701.652344 C 451.0625 701.558594 495.859375 691.421875 536.875 671.144531 L 473.644531 607.914062 C 399.355469 632.800781 314.097656 615.65625 255.019531 556.574219 C 171.789062 473.253906 171.789062 338.316406 255.019531 255.085938 C 338.246094 171.855469 473.183594 171.855469 556.507812 255.085938 C 622.039062 320.617188 635.957031 418.320312 598.261719 497.492188 C 588.03125 518.878906 574.113281 538.878906 556.507812 556.574219 C 553.648438 559.339844 550.792969 562.011719 547.84375 564.6875 L 606.464844 623.214844 L 684.902344 701.652344 L 802.417969 701.652344 L 659.277344 558.511719 C 677.988281 527.355469 690.613281 493.53125 696.882812 458.78125 Z M 696.882812 458.78125 " fill-opacity="1" fill-rule="evenodd"/></g></svg>