<?xml version="1.0" encoding="utf-8"?>
<svg version="1.1" id="Layer_1" x="0px" y="0px" viewBox="0 0 846 529.5" style="enable-background:new 0 0 846 529.5;" xmlns="http://www.w3.org/2000/svg">
  <style type="text/css">
	.st0{fill:#240A49;}
	.st1{fill:none;stroke:#C7980F;stroke-width:4;stroke-miterlimit:10;}
</style>
  <g transform="matrix(1.085197, 0, 0, 1.151157, -37.317051, -37.622562)" style="">
    <g id="MLftBK.tif">
      <g>
        <path class="st0" d="M34,36c2.2,15.8,5.2,31.5,11.4,46.3c25.5,61.4,70.8,99.1,135.8,112.5c11.2,2.3,22.8,3.1,34.2,3.2 c151.1,0.2,302.3,0.2,453.4,0.1c27.1,0,47.3,11.8,61.1,34.8c5.8,9.7,8.4,20.5,8.8,31.9c0.4,13.6-0.3,27.5,2.3,40.8 c6.4,32.6,37.7,57.9,69,57.8c1.3,0,2.6-0.2,4-0.3c0,43.3,0,86.7,0,130c-260,0-520,0-780,0C34,340.7,34,188.3,34,36z"/>
      </g>
    </g>
    <g id="MLftBK.tif_00000075140615695704521360000008937044618695015348_">
      <g>
        <path class="st1" d="M34,36c2.2,15.8,5.2,31.5,11.4,46.3c25.5,61.4,70.8,99.1,135.8,112.5c11.2,2.3,22.8,3.1,34.2,3.2 c151.1,0.2,302.3,0.2,453.4,0.1c27.1,0,47.3,11.8,61.1,34.8c5.8,9.7,8.4,20.5,8.8,31.9c0.4,13.6-0.3,27.5,2.3,40.8 c6.4,32.6,37.7,57.9,69,57.8c1.3,0,2.6-0.2,4-0.3"/>
      </g>
    </g>
  </g>
</svg>